HIERARCHY
ROOT Hips
{
	OFFSET 0.000000 0.000000 0.000000
	CHANNELS 6 Xposition Yposition Zposition Zrotation Yrotation Xrotation 
	JOINT LowerBack
	{
		OFFSET 0.000000 0.000000 0.000000
		CHANNELS 3 Zrotation Yrotation Xrotation
		JOINT Spine
		{
			OFFSET 0.028270 2.035590 -0.193380
			CHANNELS 3 Zrotation Yrotation Xrotation
			JOINT Spine1
			{
				OFFSET 0.056720 2.048850 -0.042750
				CHANNELS 3 Zrotation Yrotation Xrotation
				JOINT Neck
				{
					OFFSET 0.000000 0.000000 0.000000
					CHANNELS 3 Zrotation Yrotation Xrotation
					JOINT Neck1
					{
						OFFSET -0.054170 1.746240 0.172020
						CHANNELS 3 Zrotation Yrotation Xrotation
						JOINT Head
						{
							OFFSET 0.104070 1.761360 -0.123970
							CHANNELS 3 Zrotation Yrotation Xrotation
							End Site
							{
								OFFSET 0.000000 0.000000 0.000000
							}
						}
					}
				}
				JOINT LeftShoulder
				{
					OFFSET 0.000000 0.000000 0.000000
					CHANNELS 3 Zrotation Yrotation Xrotation
					JOINT LeftArm
					{
						OFFSET 3.362410 1.200890 -0.311210
						CHANNELS 3 Zrotation Yrotation Xrotation
						JOINT LeftForeArm
						{
							OFFSET 4.983000 -0.000000 -0.000000
							CHANNELS 3 Zrotation Yrotation Xrotation
							JOINT LeftHand
							{
								OFFSET 3.483560 -0.000000 -0.000000
								CHANNELS 3 Zrotation Yrotation Xrotation
								JOINT LeftFingerBase
								{
									OFFSET 0.000000 0.000000 0.000000
									CHANNELS 3 Zrotation Yrotation Xrotation
									JOINT LeftHandIndex1
									{
										OFFSET 0.715260 -0.000000 -0.000000
										CHANNELS 3 Zrotation Yrotation Xrotation
										End Site
										{
											OFFSET 0.000000 0.000000 0.000000
										}
									}
								}
								JOINT LThumb
								{
									OFFSET 0.000000 0.000000 0.000000
									CHANNELS 3 Zrotation Yrotation Xrotation
									End Site
									{
										OFFSET 0.000000 0.000000 0.000000
									}
								}
							}
						}
					}
				}
				JOINT RightShoulder
				{
					OFFSET 0.000000 0.000000 0.000000
					CHANNELS 3 Zrotation Yrotation Xrotation
					JOINT RightArm
					{
						OFFSET -3.136600 1.374050 -0.404650
						CHANNELS 3 Zrotation Yrotation Xrotation
						JOINT RightForeArm
						{
							OFFSET -5.241900 -0.000000 -0.000000
							CHANNELS 3 Zrotation Yrotation Xrotation
							JOINT RightHand
							{
								OFFSET -3.444170 -0.000000 -0.000000
								CHANNELS 3 Zrotation Yrotation Xrotation
								JOINT RightFingerBase
								{
									OFFSET 0.000000 0.000000 0.000000
									CHANNELS 3 Zrotation Yrotation Xrotation
									JOINT RightHandIndex1
									{
										OFFSET -0.622530 -0.000000 -0.000000
										CHANNELS 3 Zrotation Yrotation Xrotation
										End Site
										{
											OFFSET 0.000000 0.000000 0.000000
										}
									}
								}
								JOINT RThumb
								{
									OFFSET 0.000000 0.000000 0.000000
									CHANNELS 3 Zrotation Yrotation Xrotation
									End Site
									{
										OFFSET 0.000000 0.000000 0.000000
									}
								}
							}
						}
					}
				}
			}
		}
	}
}
}
MOTION
Frames: 14
Frame Time: 0.008333
2.348545 17.122787 2.020189 -5.593838 -75.387053 18.706372 -6.471510 -2.394837 -0.620610 -2.060994 -2.070399 -2.789824 -6.667795 -2.083348 0.901145 11.250151 -13.811488 -9.006159 -1.788976 -0.112898 -0.409019 0.000000 0.000000 0.000000 2.235732 7.850905 1.009159 -54.605820 11.591337 22.396077 -2.041037 -59.054413 0.015109 -3.207703 -8.924590 0.250491 -0.048741 0.101200 0.000000 0.000000 0.000000 0.000000 0.000000 0.000000 0.000000 10.509465 -10.191056 1.298376 70.239325 -4.258308 15.222932 2.955680 37.837301 0.027751 2.939731 13.365899 0.338800 0.086183 -0.117897 0.000000 0.000000 0.000000 0.000000 0.000000 0.000000 0.000000 
2.355900 17.119513 2.043654 -6.389037 -74.991829 19.197325 -6.345967 -2.422299 -0.507886 -2.043015 -2.107160 -2.774367 -6.702985 -2.117733 0.863026 11.225924 -13.754450 -8.970133 -1.788389 -0.113166 -0.400796 0.000000 0.000000 0.000000 2.259538 7.619021 1.028132 -54.073393 11.000131 23.010273 -2.005723 -59.390927 0.015093 -3.225193 -8.897766 0.251293 -0.047327 0.104630 0.000000 0.000000 0.000000 0.000000 0.000000 0.000000 0.000000 10.448157 -10.151661 1.318367 70.394924 -4.525424 15.281016 2.962542 37.584943 0.027414 3.059954 13.336092 0.352383 0.084557 -0.115495 0.000000 0.000000 0.000000 0.000000 0.000000 0.000000 0.000000 
2.363788 17.116788 2.067095 -7.216253 -74.580432 19.718218 -6.194789 -2.455654 -0.399597 -2.019169 -2.151381 -2.759305 -6.735789 -2.159705 0.827631 11.199744 -13.694594 -8.930760 -1.787086 -0.113436 -0.391446 0.000000 0.000000 0.000000 2.284802 7.376997 1.051162 -53.547066 10.369803 23.612820 -1.974945 -59.654061 0.015117 -3.234878 -8.876899 0.251697 -0.046211 0.108002 0.000000 0.000000 0.000000 0.000000 0.000000 0.000000 0.000000 10.380262 -10.115823 1.336836 70.530619 -4.774666 15.362362 2.968990 37.333953 0.027057 3.177872 13.306052 0.365564 0.082923 -0.113025 0.000000 0.000000 0.000000 0.000000 0.000000 0.000000 0.000000 
2.372475 17.114653 2.090729 -8.077119 -74.154388 20.273459 -6.014255 -2.493613 -0.296321 -1.988435 -2.201905 -2.744491 -6.764693 -2.208087 0.796278 11.167160 -13.631979 -8.888770 -1.784094 -0.113618 -0.381168 0.000000 0.000000 0.000000 2.310786 7.130901 1.078839 -53.035034 9.689272 24.204184 -1.949513 -59.832216 0.015189 -3.235923 -8.862174 0.251503 -0.045462 0.111331 0.000000 0.000000 0.000000 0.000000 0.000000 0.000000 0.000000 10.297028 -10.082948 1.353491 70.650310 -5.001264 15.457386 2.975145 37.081695 0.026686 3.288233 13.276146 0.377745 0.081331 -0.110523 0.000000 0.000000 0.000000 0.000000 0.000000 0.000000 0.000000 
2.382060 17.113283 2.114860 -8.986999 -73.719680 20.881020 -5.796040 -2.532302 -0.199666 -1.949838 -2.255380 -2.734030 -6.791975 -2.260156 0.754673 11.121441 -13.541198 -8.830385 -1.782398 -0.114200 -0.365983 0.000000 0.000000 0.000000 2.326926 6.818198 1.110978 -52.539495 9.051928 24.726740 -1.927591 -59.968043 0.015240 -3.250942 -8.826164 0.251807 -0.044681 0.114244 0.000000 0.000000 0.000000 0.000000 0.000000 0.000000 0.000000 10.192499 -10.021427 1.373895 70.763915 -5.245216 15.498285 2.982450 36.848475 0.026296 3.412099 13.235075 0.391226 0.079640 -0.108088 0.000000 0.000000 0.000000 0.000000 0.000000 0.000000 0.000000 
2.393006 17.112590 2.139584 -9.932240 -73.280477 21.527757 -5.542974 -2.571047 -0.106812 -1.902780 -2.310719 -2.723002 -6.812195 -2.314101 0.719961 11.061128 -13.448733 -8.772143 -1.777082 -0.114492 -0.350693 0.000000 0.000000 0.000000 2.346440 6.518081 1.148600 -52.077083 8.338419 25.240631 -1.912666 -59.995742 0.015374 -3.255156 -8.804392 0.251715 -0.044403 0.117217 0.000000 0.000000 0.000000 0.000000 0.000000 0.000000 0.000000 10.056716 -9.961094 1.392106 70.867180 -5.456196 15.540282 2.989548 36.613028 0.025907 3.516514 13.197136 0.402407 0.078099 -0.105721 0.000000 0.000000 0.000000 0.000000 0.000000 0.000000 0.000000 
2.405542 17.112676 2.165079 -10.929395 -72.846989 22.227866 -5.249400 -2.605246 -0.016170 -1.846729 -2.363648 -2.713941 -6.827068 -2.366069 0.681305 10.982102 -13.338030 -8.704462 -1.770193 -0.114828 -0.332578 0.000000 0.000000 0.000000 2.362014 6.184942 1.190969 -51.651118 7.620987 25.699323 -1.903114 -59.950776 0.015528 -3.267034 -8.773158 0.251823 -0.044289 0.119952 0.000000 0.000000 0.000000 0.000000 0.000000 0.000000 0.000000 9.885983 -9.879500 1.412694 70.965651 -5.660437 15.538791 2.997589 36.392036 0.025520 3.616787 13.154344 0.412788 0.076616 -0.103509 0.000000 0.000000 0.000000 0.000000 0.000000 0.000000 0.000000 
2.419891 17.113602 2.191435 -11.976892 -72.426981 22.977740 -4.916496 -2.632507 0.075821 -1.781818 -2.411617 -2.705836 -6.835531 -2.413417 0.639897 10.883565 -13.210791 -8.629109 -1.761072 -0.115123 -0.312226 0.000000 0.000000 0.000000 2.377129 5.828358 1.237798 -51.269500 6.890219 26.103012 -1.899361 -59.827335 0.015715 -3.284911 -8.738979 0.252332 -0.044377 0.122530 0.000000 0.000000 0.000000 0.000000 0.000000 0.000000 0.000000 9.677699 -9.776752 1.435533 71.057685 -5.850372 15.499938 3.006412 36.186258 0.025149 3.707365 13.109856 0.421970 0.075238 -0.101495 0.000000 0.000000 0.000000 0.000000 0.000000 0.000000 0.000000 
2.436235 17.115449 2.218671 -13.082709 -72.030115 23.780241 -4.544371 -2.649883 0.172961 -1.708329 -2.451631 -2.698767 -6.838105 -2.453222 0.592410 10.766109 -13.065136 -8.544057 -1.750226 -0.115452 -0.289127 0.000000 0.000000 0.000000 2.390629 5.436615 1.287830 -50.934971 6.173277 26.432734 -1.900550 -59.642204 0.015921 -3.315731 -8.695926 0.253541 -0.044508 0.124881 0.000000 0.000000 0.000000 0.000000 0.000000 0.000000 0.000000 9.433032 -9.648091 1.462328 71.141093 -6.027145 15.421890 3.016328 36.000383 0.024799 3.789657 13.063728 0.430052 0.073977 -0.099723 0.000000 0.000000 0.000000 0.000000 0.000000 0.000000 0.000000 
2.454546 17.118172 2.246624 -14.235831 -71.660062 24.623206 -4.139929 -2.657898 0.280186 -1.627080 -2.483670 -2.688424 -6.832232 -2.484869 0.551359 10.634987 -12.915816 -8.461322 -1.735221 -0.115398 -0.266898 0.000000 0.000000 0.000000 2.416857 5.076503 1.341624 -50.657430 5.378128 26.737070 -1.908835 -59.350608 0.016206 -3.333864 -8.670113 0.254252 -0.045160 0.127391 0.000000 0.000000 0.000000 0.000000 0.000000 0.000000 0.000000 9.156107 -9.510993 1.487724 71.206785 -6.158458 15.346940 3.026075 35.823490 0.024478 3.848637 13.025384 0.435636 0.072911 -0.098167 0.000000 0.000000 0.000000 0.000000 0.000000 0.000000 0.000000 
2.474723 17.121926 2.275324 -15.453763 -71.326246 25.518778 -3.702277 -2.653609 0.398420 -1.539014 -2.504936 -2.678801 -6.822421 -2.506214 0.500391 10.492332 -12.746158 -8.366524 -1.719985 -0.115534 -0.241405 0.000000 0.000000 0.000000 2.442013 4.671714 1.395866 -50.423835 4.638085 26.944429 -1.920078 -59.031453 0.016475 -3.372401 -8.629983 0.256061 -0.045613 0.129617 0.000000 0.000000 0.000000 0.000000 0.000000 0.000000 0.000000 8.855722 -9.343446 1.518554 71.251905 -6.273039 15.245165 3.037186 35.669271 0.024194 3.902434 12.987675 0.440620 0.071966 -0.096877 0.000000 0.000000 0.000000 0.000000 0.000000 0.000000 0.000000 
2.496563 17.126629 2.304433 -16.718945 -71.026185 26.449508 -3.242605 -2.640261 0.529999 -1.445780 -2.517894 -2.665237 -6.806594 -2.519036 0.455058 10.347560 -12.572076 -8.273884 -1.702277 -0.115420 -0.216895 0.000000 0.000000 0.000000 2.484844 4.305645 1.451311 -50.241535 3.837212 27.121590 -1.936721 -58.630006 0.016810 -3.396358 -8.608943 0.257273 -0.046494 0.132053 0.000000 0.000000 0.000000 0.000000 0.000000 0.000000 0.000000 8.543138 -9.166513 1.547345 71.264373 -6.335999 15.164656 3.048090 35.521588 0.023944 3.936995 12.960378 0.443706 0.071191 -0.095776 0.000000 0.000000 0.000000 0.000000 0.000000 0.000000 0.000000 
2.519720 17.132409 2.333911 -18.042576 -70.763414 27.424987 -2.761830 -2.617523 0.672312 -1.348581 -2.522270 -2.651830 -6.789527 -2.523666 0.401388 10.204770 -12.379966 -8.170373 -1.685944 -0.115593 -0.189561 0.000000 0.000000 0.000000 2.530334 3.909853 1.504723 -50.089498 3.100323 27.207978 -1.954338 -58.227288 0.017117 -3.437346 -8.577603 0.259480 -0.047101 0.134288 0.000000 0.000000 0.000000 0.000000 0.000000 0.000000 0.000000 8.230535 -8.963858 1.579735 71.239225 -6.370075 15.083545 3.060397 35.384985 0.023735 3.968565 12.938089 0.446594 0.070532 -0.094867 0.000000 0.000000 0.000000 0.000000 0.000000 0.000000 0.000000 
2.543726 17.139152 2.363399 -19.401959 -70.530424 28.427297 -2.272150 -2.589831 0.822361 -1.249594 -2.521760 -2.636232 -6.770965 -2.523388 0.350203 10.073789 -12.179378 -8.065088 -1.670205 -0.115826 -0.162080 0.000000 0.000000 0.000000 2.593018 3.541153 1.556225 -49.967299 2.351705 27.254942 -1.973995 -57.792205 0.017447 -3.469582 -8.559516 0.261488 -0.047861 0.136670 0.000000 0.000000 0.000000 0.000000 0.000000 0.000000 0.000000 7.932508 -8.750385 1.610099 71.166997 -6.354104 15.031302 3.073240 35.243218 0.023562 3.990861 12.926403 0.448682 0.070004 -0.094054 0.000000 0.000000 0.000000 0.000000 0.000000 0.000000 0.000000 
